Coordinates
version=1
nRows=13
nColumns=36
inDegrees=yes

Units are S.I. units (second, meters, Newtons, ...)
If the header above contains a line with 'inDegrees', this indicates whether rotational values are in degrees (yes) or radians (no).

endheader
time	pelvis_tilt	pelvis_list	pelvis_rotation	pelvis_tx	pelvis_ty	pelvis_tz	hip_flexion_r	hip_adduction_r	hip_rotation_r	knee_angle_r	knee_angle_r_beta	ankle_angle_r	subtalar_angle_r	mtp_angle_r	hip_flexion_l	hip_adduction_l	hip_rotation_l	knee_angle_l	knee_angle_l_beta	ankle_angle_l	subtalar_angle_l	mtp_angle_l	lumbar_extension	lumbar_bending	lumbar_rotation	arm_flex_r	arm_add_r	arm_rot_r	elbow_flex_r	pro_sup_r	arm_flex_l	arm_add_l	arm_rot_l	elbow_flex_l	pro_sup_l
      2.95000000	     -4.98438910	      0.48439165	     -5.29459684	      0.22061865	      0.94565400	     -0.06721904	     17.20695846	     -3.44599953	     -0.09854233	     24.29791992	      0.42407870	      4.34453946	     -3.23121788	     -7.49999987	     15.45534083	     -8.96348842	     -6.96700187	     22.99130750	      0.40127402	      4.56845054	     -2.08530091	     -7.49999987	     -9.46969517	      0.93465645	      3.73278937	      1.71134178	    -14.15856361	    -15.09906100	     28.56553211	     88.09180207	      4.68613277	    -14.68539915	     -4.45306734	     22.22655273	     77.97131888
      2.96666670	     -4.92923976	      0.38280651	     -5.38073174	      0.22941261	      0.94768712	     -0.06708595	     15.69674938	     -3.39859789	     -0.43233568	     22.57203451	      0.39395632	      3.84627718	     -2.83270810	     -7.49999987	     13.38851323	     -8.75179793	     -7.16588216	     20.23868916	      0.35323176	      4.41992028	     -1.23439492	     -7.49999987	     -8.08482658	      1.15777003	      3.63524335	      0.77618690	    -14.04850086	    -15.63688066	     28.11480768	     87.89761762	      3.40857564	    -14.47302734	     -5.44689011	     22.29006276	     78.09281520
      2.98333330	     -5.26414217	      0.30567495	     -5.53262354	      0.22880283	      0.94964145	     -0.06726556	     15.10137300	     -3.31112216	     -0.73478328	     21.29182123	      0.37161238	      3.20789914	     -2.62906328	     -7.49999987	     11.95153648	     -8.51658542	     -7.25622040	     17.45138330	      0.30458410	      3.95075700	     -0.72941497	     -7.49999987	     -6.64933365	      1.39706019	      3.70886350	      0.08635993	    -14.09013449	    -15.67701442	     27.79087021	     87.80967256	      2.57239225	    -14.30647043	     -5.62715767	     22.08713621	     78.07061438
      3.00000000	     -4.99008976	      0.31481422	     -5.67348290	      0.23335513	      0.95201149	     -0.06897986	     13.96154786	     -3.34693931	     -0.65331779	     20.01468358	      0.34932213	      2.83524004	     -2.78823743	     -7.49999987	     10.22245184	     -8.10837052	     -7.12403955	     15.23463086	      0.26589447	      3.52239547	     -0.70636340	     -7.49999987	     -6.11899116	      1.44500172	      3.75343626	     -0.10966208	    -14.16384455	    -15.68019223	     27.10676774	     87.11363218	      2.16487252	    -14.09548009	     -6.08809942	     21.78365093	     77.39361336
      3.01666670	     -4.98006467	      0.26014598	     -5.64300726	      0.23730266	      0.95554847	     -0.06730313	     12.97721499	     -3.20553877	     -0.54184085	     18.50198542	      0.32292056	      2.46963714	     -2.50957034	     -7.49999987	      8.91931687	     -7.91174218	     -7.07575615	     13.22832842	      0.23087789	      2.91110397	     -0.45679663	     -7.49999987	     -5.40052884	      1.55046211	      3.68548132	     -0.29551175	    -14.18047273	    -15.63856522	     26.50509654	     86.72872736	      1.79311173	    -13.94264791	     -6.40777235	     21.52872269	     77.03495314
      3.03333330	     -4.88070528	      0.18109884	     -5.47296239	      0.24184438	      0.95514938	     -0.06937007	     11.68067357	     -3.13165880	     -0.53909550	     16.72277121	      0.29186742	      2.06279993	     -2.50851512	     -7.49999987	      7.82698739	     -7.73600842	     -7.11109566	     11.67455771	      0.20375947	      2.42017160	     -0.10430164	     -7.49999987	     -4.82429018	      1.71117587	      3.45924110	     -0.45017018	    -14.17924344	    -15.67547850	     25.90116123	     86.68905973	      1.32230911	    -13.73230281	     -6.98228731	     21.54717449	     77.12544372
      3.05000000	     -5.23424752	      0.24191044	     -5.28875882	      0.24155355	      0.95837993	     -0.06969071	     11.03529407	     -3.11003358	     -0.38821015	     15.00131186	      0.26182228	      1.88734011	     -2.25039052	     -7.49999987	      7.39588222	     -7.48245605	     -7.17413377	     10.22019109	      0.17837598	      1.88816111	      0.31091534	     -7.49999987	     -3.84282589	      1.70769354	      3.29707533	     -0.84554459	    -14.15336142	    -15.71474770	     25.69307383	     86.61101426	      1.02914831	    -13.60547744	     -7.12467413	     21.51641009	     77.12263187
      3.06666670	     -4.84266209	      0.10424372	     -4.98798201	      0.24161562	      0.95496624	     -0.06983249	      9.61950782	     -2.94325223	     -0.24964918	     13.23061740	      0.23091784	      1.39304868	     -2.64529434	     -7.49999987	      6.35288152	     -7.41091757	     -7.29154847	      9.10264105	      0.15887106	      1.61658960	      0.61639491	     -7.49999987	     -3.99457315	      1.87244463	      3.15982124	     -0.71428226	    -14.17268242	    -15.90759741	     25.06956734	     86.20731957	      1.06813221	    -13.37930729	     -7.81451621	     21.57643074	     77.12884882
      3.08333330	     -4.64313506	      0.01533216	     -4.80714813	      0.24575489	      0.95693691	     -0.06830317	      8.41959173	     -2.78370414	     -0.19813281	     11.62133174	      0.20283050	      1.30484418	     -2.52155472	     -7.49999987	      5.72420826	     -7.42078935	     -7.37423098	      8.44950687	      0.14747172	      1.62672127	      1.01201030	     -7.49999987	     -3.79927631	      1.92883189	      3.05696833	     -0.85627632	    -14.14324469	    -15.82595974	     24.78336489	     84.26773462	      1.01038048	    -13.13309494	     -8.45913903	     21.49046302	     75.69010948
      3.10000000	     -4.56753335	     -0.04851715	     -4.69289473	      0.24628190	      0.96090161	     -0.06797236	      7.54058944	     -2.62594560	     -0.15303326	     10.27606397	      0.17935115	      1.07277928	     -2.35883239	     -7.49999987	      5.23467075	     -7.43892799	     -7.56619860	      7.80229600	      0.13617575	      1.52214889	      1.48052348	     -7.49999987	     -3.51422558	      1.98090954	      3.03216938	     -0.95612578	    -14.11210841	    -15.68847563	     24.37103874	     82.79848873	      1.08245848	    -12.89294145	     -8.96076633	     21.30078220	     74.76846680
      3.11666670	     -4.60133782	     -0.07042020	     -4.52258910	      0.25460899	      0.95744004	     -0.06883458	      6.80918966	     -2.55788730	     -0.07344301	      9.36156143	      0.16339007	      1.12906739	     -2.34305616	     -7.49999987	      4.77596012	     -7.40597788	     -7.50383949	      7.28483316	      0.12714432	      1.56998295	      1.61777498	     -7.49999987	     -2.89349850	      2.03201360	      2.97995198	     -1.29309973	    -14.03494262	    -15.70356714	     24.00942323	     82.85420400	      0.89682844	    -12.76345367	     -9.03975390	     21.02221379	     74.84288859
      3.13333330	     -4.28880490	     -0.28327593	     -4.21350615	      0.25474298	      0.95597818	     -0.06904214	      5.75013404	     -2.32451637	     -0.14523459	      8.45074953	      0.14749340	      0.80831167	     -2.41588246	     -7.49999987	      4.01183981	     -7.54648532	     -7.46672641	      6.74073456	      0.11764801	      1.82619725	      2.13058135	     -7.49999987	     -3.01518649	      2.22846875	      2.65630215	     -1.13363080	    -14.01094079	    -15.40167434	     23.39418058	     81.66949715	      0.90380855	    -12.19725228	    -12.51617501	     20.97532798	     78.82527266
      3.15000000	     -4.00607087	     -0.44150123	     -4.01395065	      0.25879794	      0.95588115	     -0.06748073	      4.84545746	     -2.12269845	     -0.05265966	      7.85324203	      0.13706493	      0.73928322	     -2.66989569	     -7.49999987	      3.15886350	     -7.67891360	     -7.52871912	      6.05364264	      0.10565600	      1.97691779	      2.48346503	     -7.49999987	     -2.85799105	      2.36155215	      2.62516271	     -1.27053318	    -13.87787777	    -15.48597914	     23.03703369	     80.93893312	      0.85966248	    -12.05893114	    -12.73644914	     20.80952681	     78.16655839
